<svg id="message" x="0px" y="0px" width="612px" height="792px" viewBox="100 150 612 792" enable-background="new 0 0 1212 1392">
    <path fill-rule="evenodd" clip-rule="evenodd" fill="#22374A" d="M485.601,467.641c-4.021,4.417-8.304,8.512-13.473,11.621  c-1.623,0.977-3.041,2.319-4.466,3.592c-1.076,0.961-1.313,2.162-0.762,3.59c1.652,4.274,2.37,8.696,2.615,13.303
    c0.298,5.58,0.357,11.108-0.749,16.581c-0.998,4.933-3.247,8.983-8.446,10.7c-2.336,0.771-4.647,0.682-6.956,0.104
    c-1.97-0.494-3.457-1.871-4.312-3.581c-2.275-4.552-3.18-9.456-2.713-14.523c0.433-4.688,2.032-9.088,3.88-13.385
    c1.252-2.912,2.872-5.615,5.003-7.986c0.96-1.067,0.813-2.333,0.462-3.51c-1.66-5.571-3.406-11.117-5.101-16.679
    c-0.601-1.969-1.693-2.332-3.034-0.796c-1.729,1.981-3.226,4.166-4.947,6.154c-2.773,3.204-5.604,6.362-8.501,9.455
    c-1.334,1.424-1.783,2.786-0.806,4.6c2.854,5.295,3.79,11.088,3.913,16.989c0.06,2.85-0.528,5.711-0.804,8.568
    c-0.338,3.495-1.051,6.879-2.164,10.239c-1.707,5.157-5.415,7.958-10.286,9.452c-1.745,0.536-3.722,0.716-5.531,0.509
    c-1.36-0.155-2.863-0.926-3.884-1.874c-3.669-3.407-5.544-7.621-5.053-12.751c0.239-2.497,0.194-5.026,0.538-7.505
    c0.203-1.471,0.706-2.985,1.43-4.282c2.467-4.42,5.066-8.767,7.675-13.106c0.486-0.809,1.239-1.458,1.88-2.172
    c1.112-1.239,1.195-2.165,0.526-3.704c-1.239-2.851-2.408-5.731-3.609-8.6c-0.213-0.509-0.44-1.012-0.766-1.755
    c-0.856,1.697-1.667,3.168-2.354,4.693c-2.114,4.687-3.866,9.568-6.339,14.055c-4.059,7.368-8.469,14.552-12.945,21.678
    c-1.864,2.967-4.639,5.151-7.892,6.624c-6.244,2.826-15.459-1.778-16.821-8.153c-1.493-6.985-2.163-13.938-0.96-21.034
    c0.773-4.56,0.98-9.241,2.072-13.715c1.734-7.104,4.813-13.603,10.473-18.586c3.655-3.219,7.797-3.378,12.13-1.945
    c2.366,0.783,3.19,2.887,3.189,5.146c-0.002,2.055-0.128,4.206-0.736,6.147c-1.524,4.863-3.713,9.388-8.417,12.074
    c-1.064,0.608-2.177,1.171-3.328,1.584c-2.66,0.953-3.658,2.057-3.777,4.858c-0.271,6.347-0.485,12.694-0.657,19.044
    c-0.059,2.137,0.335,4.22,1.496,6.08c1.287,2.063,2.76,2.272,4.282,0.402c1.559-1.917,2.915-4,4.327-6.033
    c5.447-7.843,10.436-15.966,15.183-24.254c2.433-4.249,5.422-8.181,8.205-12.225c0.418-0.606,0.521-1.017,0.132-1.686
    c-2.045-3.52-4.055-7.06-6.034-10.616c-1.618-2.908-2.394-6.11-2.605-9.375c-0.072-1.12,0.794-2.357,1.391-3.455
    c2.354-4.334,8.27-5.409,11.806-3.58c1.644,0.85,3.161,2.004,4.583,3.201c1.097,0.922,1.19,2.285,0.573,3.367
    c-0.556,0.975-2.162,1.634-3.362,1.301c-0.352-0.098-0.667-0.405-0.945-0.672c-1.328-1.269-2.619-2.576-3.96-3.83
    c-0.948-0.887-1.68-0.747-2.279,0.415c-0.907,1.757-0.872,3.62-0.489,5.494c0.058,0.281,0.335,0.521,0.52,0.771
    c0.755,1.025,1.706,1.957,2.238,3.086c2.078,4.408,4.887,8.285,7.922,12.078c2.178,2.723,3.846,5.859,5.677,8.85
    c0.729,1.192,1.065,1.339,1.986,0.263c2.077-2.428,3.938-5.062,6.175-7.327c3.503-3.549,7.291-6.814,10.847-10.313
    c0.722-0.712,1.345-1.933,1.332-2.91c-0.051-3.813,1.132-7.129,3.38-10.137c0.404-0.542,0.848-1.089,1.1-1.704
    c0.532-1.303,1.55-1.948,2.831-2.108c2.318-0.292,4.632-0.211,6.836,0.704c1.491,0.619,1.73,1.76,0.666,3.016
    c-2.767,3.266-4.309,7.125-4.674,11.297c-0.181,2.062,0.59,4.225,1.042,6.317c0.816,3.776,1.716,7.534,2.583,11.3
    c0.428,1.858,1.76,2.258,3.276,1.059c5.542-4.385,11.101-8.75,16.678-13.092c0.355-0.276,1.04-0.516,1.353-0.353
    c0.312,0.161,0.364,0.849,0.495,1.315c0.106,0.377,0.161,0.77,0.239,1.154C485.601,467.32,485.601,467.48,485.601,467.641z
     M423.179,494.834c-0.346,0.373-0.727,0.666-0.954,1.05c-1.242,2.093-2.5,4.179-3.65,6.321c-1.583,2.949-3.097,5.939-3.779,9.262
    c-0.935,4.549-0.512,9.039,0.439,13.537c0.323,1.528,1.315,2.047,2.571,2.482c1.132,0.394,2.021,0.048,2.827-0.734
    c1.681-1.631,2.862-3.586,3.258-5.876c1.223-7.073,1.683-14.197,0.886-21.353C424.603,497.962,424.866,496.19,423.179,494.834z
     M457.304,493.361c-1.455,1.12-1.514,1.143-2.513,3.782c-2.719,7.184-3.837,14.526-2.072,22.135c0.297,1.28,1.019,1.661,2.052,0.871
    c0.864-0.661,1.739-1.466,2.25-2.403c1.671-3.069,1.908-6.492,1.81-9.881c-0.101-3.465-0.511-6.923-0.847-10.378
    C457.855,496.174,457.559,494.875,457.304,493.361z M384.799,478.987c0.392-0.111,0.524-0.113,0.611-0.179
    c2.91-2.177,4.401-5.154,4.82-8.703c0.039-0.331-0.292-0.706-0.482-1.129c-0.289,0.218-0.463,0.284-0.529,0.408
    c-1.48,2.764-2.965,5.525-4.398,8.313C384.66,478.007,384.799,478.47,384.799,478.987z"/>
  <path fill-rule="evenodd" clip-rule="evenodd" fill="#DEADB3" d="M241.178,387.273c-0.75,0.421-1.366,0.767-1.982,1.112
    c-2.862,1.602-6.032,2.245-9.178,2.976c-1.895,0.44-2.116,0.733-2.239,2.66c-0.188,2.951-0.146,5.937-0.598,8.846
    c-0.622,4.01-1.635,7.956-2.439,11.938c-1.218,6.026-4.367,10.914-8.846,14.997c-4.208,3.835-8.96,4.553-14.208,2.358
    c-6.179-2.582-9.571-7.396-10.509-13.807c-0.952-6.503-0.125-12.993,1.264-19.389c0.583-2.682,1.188-5.373,2.033-7.978
    c0.986-3.037,2.949-5.479,5.498-7.388c0.56-0.419,1.398-0.481,2.12-0.663c0.451-0.113,0.923-0.142,1.577-0.236
    c-0.557-0.922-1.051-1.677-1.481-2.467c-0.97-1.782-1.913-3.58-2.858-5.376c-3.257-6.19,0.514-15.231,8.065-17.103
    c1.16-0.288,2.333-0.531,3.51-0.742c3.786-0.678,6.445,1.164,8.68,3.929c2.558,3.164,3.762,6.938,4.589,10.807
    c0.756,3.54,1.235,7.144,1.726,10.735c0.303,2.214,0.674,2.771,2.908,2.651c2.661-0.142,5.335-0.371,7.953-0.842
    c1.326-0.239,2.563-1.054,3.79-1.705c0.275-0.146,0.469-0.693,0.474-1.058c0.032-2.159-0.014-4.32-0.011-6.479
    c0.002-2.529,0.998-3.779,3.458-4.252c0.897-0.172,1.875-0.401,2.725-0.207c0.804,0.185,1.668,0.746,2.191,1.396
    c1.387,1.721,1.624,3.865,1.716,5.992c0.167,3.872,0.25,7.747,0.431,11.619c0.033,0.696,0.367,1.378,0.563,2.067
    c0.142,0.005,0.283,0.011,0.425,0.017c0.344-0.598,0.772-1.163,1.018-1.799c1.777-4.611,3.449-9.264,5.288-13.85
    c1.971-4.914,5.081-8.949,9.738-11.631c4.197-2.417,8.645-2.875,13.286-1.523c0.376,0.11,0.75,0.229,1.311,0.402
    c0-1.119-0.026-2.135,0.004-3.15c0.253-8.317,1.257-16.561,2.449-24.785c0.4-2.764,0.823-5.525,1.255-8.285
    c0.412-2.628,2.266-3.899,4.543-4.752c2.283-0.856,4.144-0.024,5.777,1.526c0.76,0.721,0.888,1.68,0.614,2.669
    c-1.762,6.359-1.961,12.92-2.553,19.434c-0.553,6.084-1.229,12.158-1.791,18.242c-0.558,6.042-1.044,12.091-1.55,18.137
    c-0.031,0.372,0.036,0.752,0.07,1.358c0.341-0.307,0.555-0.418,0.646-0.593c2.7-5.17,6.688-9.212,11.167-12.836
    c2.915-2.358,5.684-4.877,8.952-6.806c2.604-1.536,5.372-2.023,8.256-2.002c2.166,0.016,3.815,1.884,3.756,4.196
    c-0.073,2.82-0.146,5.666-1.43,8.306c-0.556,1.143-0.857,2.411-1.43,3.543c-2.409,4.765-4.891,9.463-8.521,13.492
    c-1.94,2.153-3.355,4.773-5.207,7.018c-1.202,1.459-2.706,2.694-4.187,3.892c-0.903,0.729-1.272,1.372-1.094,2.615
    c0.463,3.238,0.652,6.515,1.026,9.768c0.682,5.934,2.165,11.673,4.468,17.184c0.407,0.977,1.119,1.834,1.741,2.711
    c0.466,0.655,1.019,0.641,1.612,0.087c2.668-2.488,5.094-5.167,7.138-8.215c9.708-14.472,18.255-29.634,26.781-44.81
    c1.311-2.332,2.621-4.663,3.95-6.983c0.353-0.614,0.771-1.191,1.168-1.779c0.552-0.819,1.146-1.615,2.313-1.226
    c0.897,0.3,1.457,1.539,1.059,2.632c-0.887,2.433-1.832,4.846-2.842,7.23c-2.517,5.944-5.304,11.786-7.571,17.822
    c-2.58,6.872-5.838,13.365-9.56,19.66c-2.13,3.602-4.12,7.287-6.276,10.872c-2.557,4.251-6.244,7.389-10.136,10.405
    c-6.653,5.156-13.35,2.914-17.864-2.6c-3.096-3.781-4.969-8.1-6.077-12.852c-1.27-5.441-2.77-10.821-2.788-16.478
    c-0.003-0.913-0.5-1.824-0.77-2.736c-0.138-0.008-0.276-0.015-0.415-0.022c-0.189,1.438-0.425,2.871-0.557,4.314
    c-0.203,2.226-0.254,4.468-0.515,6.686c-0.353,3.005-0.86,5.991-1.263,8.991c-0.122,0.906-0.167,1.83-0.157,2.744
    c0.016,1.407-0.341,2.659-1.154,3.823c-1.484,2.127-2.531,2.554-4.986,1.796c-1.149-0.354-1.962-1.107-2.055-2.381
    c-0.165-2.271-0.37-4.544-0.399-6.818c-0.068-5.426-0.163-10.856-0.009-16.277c0.085-3.02,0.666-6.023,0.986-9.038
    c0.473-4.448,0.935-8.896,1.359-13.349c0.534-5.605,1.004-11.217,1.56-16.819c0.069-0.69-0.099-1.013-0.662-1.325
    c-2.609-1.441-5.318-1.617-8.083-0.595c-1.303,0.481-2.277,1.377-2.941,2.67c-0.635,1.237-1.475,2.371-2.228,3.548
    c-4.321,6.76-6.834,14.147-8.09,22.066c-2.03,12.8-4.279,25.566-6.47,38.339c-0.468,2.727-2.392,3.975-5.164,3.459
    c-1.129-0.209-2.289-0.405-3.341-0.836c-1.924-0.787-2.871-2.381-2.95-4.421c-0.346-8.91-0.664-17.822-0.977-26.733
    C241.553,399.182,241.375,393.348,241.178,387.273z M200.397,414.205c0.108,0.013,0.217,0.024,0.326,0.037
    c0,0.999-0.054,2.002,0.01,2.997c0.214,3.35,0.765,6.589,3.196,9.179c1.354,1.442,2.058,1.451,3.261-0.091
    c5.283-6.77,9.388-14.038,10.043-22.865c0.313-4.215,1.136-8.393,0.549-12.651c-0.217-1.577-0.702-2.292-2.29-2.612
    c-1.836-0.371-3.678-0.739-5.536-0.957c-0.59-0.069-1.497,0.156-1.811,0.579c-1.304,1.754-2.763,3.505-3.554,5.5
    c-1.136,2.863-1.945,5.898-2.52,8.931C201.322,406.199,200.938,410.218,200.397,414.205z M292.328,399.726
    c-0.012-0.009,0.07,0.097,0.176,0.135c0.147,0.052,0.312,0.055,0.47,0.075c2.058,0.261,3.914-0.396,5.533-1.533
    c4.642-3.259,8.83-6.965,11.718-11.983c2.695-4.683,5.136-9.457,6.407-14.746c0.361-1.502,0.68-3.018,0.929-4.541
    c0.056-0.335-0.173-0.931-0.433-1.047c-0.284-0.127-0.817,0.068-1.135,0.282c-1.985,1.34-3.877,2.827-5.92,4.068
    c-2.905,1.765-5.354,4.025-7.68,6.459c-2.606,2.729-4.353,6.033-5.852,9.403c-1.382,3.107-2.246,6.449-3.285,9.704
    C292.875,397.197,292.644,398.44,292.328,399.726z M217.959,376.139c0.41-4.862-1.254-9.361-2.452-13.934
    c-0.439-1.676-1.531-2.203-3.197-1.661c-2.07,0.674-3.138,2.322-3.374,4.269c-0.346,2.871-0.487,5.793-0.387,8.683
    c0.134,3.884,2.443,6.738,5.127,9.277c0.857,0.811,2.009,1.33,3.187,0.763c1.085-0.522,1.074-1.686,1.09-2.729
    C217.977,379.251,217.959,377.695,217.959,376.139z"/>
  <path fill-rule="evenodd" clip-rule="evenodd" fill="#22374A" d="M276.87,489.466c-2.601,0.6-5.303,1.205-7.997,1.849
    c-1.238,0.296-1.558,0.905-1.685,2.518c-0.251,3.184-0.334,6.405-0.912,9.533c-0.735,3.988-1.846,7.909-2.876,11.838
    c-1.633,6.232-5.222,11.161-10.36,14.956c-3.463,2.558-7.302,3-11.364,1.585c-6.781-2.363-10.587-7.279-11.631-14.213
    c-0.903-5.992,0.028-11.953,1.271-17.832c0.633-2.996,1.389-5.979,2.303-8.901c1.027-3.284,3.025-5.974,5.817-8.01
    c0.543-0.396,1.267-0.581,1.934-0.762c0.6-0.162,1.237-0.183,2.09-0.297c-0.444-0.773-0.793-1.378-1.14-1.985
    c-1.924-3.361-1.923-3.362-5.369-4.77c-1.996-0.816-4.052-0.889-6.107-0.344c-1.597,0.424-2.819,1.345-3.674,2.846
    c-0.927,1.626-2.084,3.118-3.104,4.693c-4.206,6.494-6.594,13.647-8.019,21.223c-2.358,12.534-4.918,25.03-7.42,37.537
    c-0.507,2.536-2.21,3.661-4.819,3.32c-0.672-0.088-1.345-0.187-2.009-0.319c-2.631-0.527-4.259-2.185-4.492-4.877
    c-0.189-2.185-0.152-4.393-0.164-6.591c-0.074-13.916-0.146-27.833-0.189-41.75c-0.009-2.959,0.083-5.918,0.161-8.876
    c0.06-2.284,1.169-3.523,3.421-3.911c0.079-0.014,0.158-0.025,0.237-0.039c3.849-0.662,6.044,1.09,6.165,5.056
    c0.14,4.59,0.155,9.185,0.278,13.776c0.02,0.746,0.317,1.485,0.485,2.229c0.143,0.021,0.285,0.041,0.428,0.063
    c0.396-0.645,0.886-1.251,1.174-1.94c1.888-4.524,3.637-9.108,5.616-13.592c2.455-5.562,6.243-9.919,12.033-12.227
    c3.329-1.326,6.75-1.491,10.217-0.548c0.378,0.103,0.765,0.175,1.108,0.253c0.091-1.469-0.02-2.942,0.302-4.313
    c1.425-6.078,5.779-9.473,12.125-10.344c5.026-0.689,7.919,1.879,10.267,5.643c2.042,3.271,2.912,6.986,3.553,10.722
    c0.552,3.219,0.868,6.48,1.211,9.731c0.215,2.03,0.646,2.608,2.657,2.506c2.86-0.146,5.729-0.34,8.561-0.748
    c1.813-0.261,3.259-1.241,4.145-3.047c2.75-5.606,7.034-9.961,11.839-13.8c1.023-0.817,2.508-1.227,3.842-1.452
    c2.568-0.435,5.115-0.313,7.222,1.579c0.118,0.106,0.239,0.222,0.38,0.288c1.014,0.477,2.087,1.082,1.871,2.334
    c-0.266,1.533-1.165,2.817-2.661,3.471c-0.357,0.155-0.95,0.03-1.33-0.167c-2.619-1.357-2.617-1.38-4.399,0.941
    c-4.069,5.298-7.896,10.759-10.761,16.819c-0.807,1.707-1.316,3.557-1.936,5.35c-0.084,0.243-0.012,0.541-0.012,1.17
    c0.785-0.367,1.51-0.518,1.97-0.95c6.545-6.167,13.318-12.123,18.614-19.48c2.74-3.806,5.167-7.782,6.232-12.43
    c0.463-2.02,0.765-4.082,1.34-6.066c0.781-2.695,2.147-5.089,4.508-6.741c2.076-1.453,4.272-1.907,6.601-0.489
    c0.984,0.599,1.552,1.413,1.378,2.566c-0.184,1.216-0.315,2.484-0.771,3.607c-2.287,5.634-3.617,11.497-4.043,17.529
    c-0.351,4.976-0.255,9.98-0.521,14.964c-0.503,9.454-1.105,18.903-1.699,28.353c-0.269,4.265-0.491,8.538-0.947,12.785
    c-1.468,13.652-5.606,26.286-14.797,36.819c-4.509,5.168-9.838,9.409-16.151,12.174c-4.843,2.121-9.942,3.264-15.288,2.172
    c-2.911-0.594-5.07-2.317-6.572-4.813c-1.004-1.669-1.912-3.411-2.686-5.197c-0.914-2.108-0.211-4.264,0.226-6.355
    c2.213-10.603,7.399-19.786,13.565-28.533c5.645-8.007,12.598-14.769,19.785-21.318c4.373-3.986,8.844-7.864,13.291-11.769
    c1.004-0.881,1.483-1.879,1.397-3.252c-0.336-5.306-0.596-10.616-0.908-15.924c-0.026-0.438-0.245-0.867-0.374-1.3
    c-0.385,0.234-0.871,0.387-1.138,0.716c-1.93,2.381-3.699,4.901-5.739,7.182c-3.67,4.101-7.056,8.498-11.591,11.747
    c-0.843,0.604-1.744,1.128-2.596,1.721c-2.061,1.434-4.244,1.496-6.489,0.561c-4.364-1.819-6.816-6.293-6.041-11.118
    C276.003,492.97,276.493,491.173,276.87,489.466z M310.674,511.227c-0.09-0.012-0.18-0.023-0.271-0.036
    c0.02-0.398,0.119-0.814,0.04-1.193c-0.128-0.622-0.372-1.221-0.568-1.828c-0.625,0.245-1.382,0.344-1.854,0.762
    c-1.914,1.696-3.73,3.501-5.602,5.245c-1.637,1.525-3.43,2.905-4.923,4.559c-2.635,2.918-4.401,6.559-7.466,9.137
    c-7.125,10.105-13.179,20.823-18.285,32.077c-0.671,1.48-1.104,3.069-1.644,4.608c-0.392,1.117-0.575,2.372-1.208,3.327
    c-1.841,2.774-1.463,5.493-0.17,8.274c0.553,1.189,1.538,1.798,2.8,1.614c1.843-0.269,3.763-0.457,5.47-1.132
    c5.2-2.057,9.953-4.699,14.197-8.604c7.813-7.185,12.63-15.854,14.852-26.064c0.982-4.513,1.631-9.104,2.308-13.677
    C309.191,522.616,309.905,516.917,310.674,511.227z M239.609,514.518c0,0.919-0.042,1.841,0.007,2.757
    c0.158,2.964,0.793,5.767,2.814,8.092c1.355,1.558,2.061,1.627,3.346,0.049c5.196-6.382,9.528-13.161,10.494-21.638
    c0.505-4.437,1.47-8.819,1.096-13.329c-0.15-1.813-0.613-2.49-2.401-2.914c-1.781-0.422-3.569-0.838-5.375-1.114
    c-0.553-0.085-1.421,0.107-1.726,0.499c-1.39,1.788-2.93,3.556-3.855,5.587c-1.363,2.99-2.419,6.123-2.913,9.443
    C240.473,506.128,239.449,510.25,239.609,514.518z M257.785,475.2c0.117-0.012,0.235-0.023,0.353-0.036
    c-0.338-2.753-0.606-5.517-1.039-8.255c-0.285-1.802-0.792-3.569-1.229-5.346c-0.394-1.604-1.567-2.238-3.19-1.736
    c-2.017,0.623-3.122,2.187-3.432,4.093c-0.433,2.658-0.656,5.372-0.708,8.066c-0.083,4.264,2.149,7.518,5.154,10.239
    c0.649,0.589,1.931,0.847,2.83,0.7c1.153-0.187,1.207-1.472,1.244-2.457C257.832,478.715,257.785,476.957,257.785,475.2z"/>
  <path fill-rule="evenodd" clip-rule="evenodd" fill="#22374A" d="M401.946,373.814c-0.999,2.459-1.953,4.937-3.006,7.373
    c-3.478,8.05-6.951,16.102-10.513,24.114c-1.125,2.533-2.636,4.978-4.971,6.495c-4.97,3.23-8.686,2.344-12.477-2.383
    c-1.615-2.014-2.024-4.499-2.47-6.915c-1.363-7.401-1.009-14.771,0.513-22.128c0.823-3.979,1.402-8.009,2.1-12.015
    c0.261-1.494,0.895-2.79,1.991-3.872c0.315-0.311,0.483-0.8,0.645-1.235c0.41-1.111,1.198-1.75,2.361-1.635
    c1.135,0.113,2.31,0.291,3.357,0.711c1.573,0.632,2.28,2.026,1.986,3.683c-0.341,1.92-0.918,3.803-1.191,5.729
    c-0.492,3.476-0.893,6.967-1.225,10.462c-0.502,5.289-1.026,10.581-1.307,15.883c-0.116,2.205,0.364,4.442,0.605,6.661
    c0.019,0.173,0.324,0.472,0.437,0.446c0.241-0.054,0.506-0.238,0.652-0.445c1.497-2.119,3.145-4.157,4.417-6.405
    c2.672-4.72,5.175-9.537,7.684-14.348c0.993-1.906,1.864-3.88,2.708-5.859c2.13-4.996,4.939-9.631,8.368-13.772
    c1.666-2.011,1.349-4.15,1.801-6.228c0.771-3.541,1.183-7.159,1.766-10.742c0.314-1.935,1.354-3.131,3.382-3.493
    c2.082-0.372,4.068-0.691,5.952,0.723c2.017,1.514,2.661,3.458,2.33,5.886c-0.873,6.406-1.717,12.816-2.522,19.23
    c-0.107,0.855-0.365,1.846,0.669,2.657c0.348-0.387,0.749-0.714,0.999-1.132c3.604-6.02,7.981-11.466,12.354-16.927
    c2.404-3.004,5.859-3.192,8.655-2.212c2.191,0.768,2.75,2.852,3.204,4.87c0.643,2.862-0.102,5.643-0.618,8.42
    c-1.176,6.31-2.591,12.583-3.544,18.925c-0.462,3.079-0.108,6.28-0.112,9.426c-0.001,0.193,0.092,0.387,0.146,0.58
    c0.465,1.675,1.152,1.867,2.387,0.647c3.399-3.362,6.302-7.118,8.745-11.224c3.694-6.208,7.328-12.452,11.057-18.64
    c1.062-1.762,2.36-3.381,3.591-5.122c1.229,1.219,1.507,2.622,1.049,3.912c-4.037,11.391-7.928,22.865-15.26,32.715
    c-0.949,1.275-2.086,2.427-3.238,3.53c-5.41,5.176-13.691,4.099-18.124-2.194c-0.598-0.85-0.986-2.114-0.894-3.134
    c0.368-4.048,0.896-8.085,1.496-12.107c0.8-5.363,1.735-10.705,2.564-16.064c0.055-0.356-0.22-0.863-0.503-1.128
    c-0.131-0.122-0.803,0.062-0.972,0.294c-3.703,5.106-7.48,10.172-9.84,16.099c-2.004,5.034-4.019,10.064-5.992,15.11
    c-0.345,0.882-0.737,1.842-0.71,2.753c0.066,2.217-1.01,3.924-2.23,5.545c-0.424,0.563-1.284,1.011-1.997,1.101
    c-1.855,0.235-3.673-0.125-5.279-1.144c-1.66-1.054-2.715-2.351-2.578-4.588c0.378-6.184,0.495-12.383,0.823-18.571
    c0.127-2.386,0.548-4.757,0.83-7.135c0.046-0.383,0.069-0.769,0.103-1.153C402.049,373.837,401.997,373.825,401.946,373.814z"/>
  <path fill-rule="evenodd" clip-rule="evenodd" fill="#22374A" d="M146.282,518.513c0.403-0.575,0.868-1.116,1.201-1.729
    c4.975-9.149,9.85-18.355,14.949-27.436c1.431-2.548,3.298-4.936,5.336-7.037c3.376-3.479,7.786-3.945,12.354-3.284
    c1.318,0.19,2.27,1.104,2.967,2.25c5.459,8.959,4.205,21.719-2.721,29.787c-1.465,1.707-3.351,3.086-5.173,4.44
    c-1.234,0.917-2.801,0.784-4.148,0.217c-1.412-0.597-2.829-1.331-4.009-2.293c-2.136-1.742-2.796-4.077-2.088-6.786
    c1.012-3.867,2.85-7.354,4.938-10.715c0.338-0.544,1.045-1.035,1.67-1.187c1.172-0.284,1.793,0.476,1.551,1.66
    c-0.359,1.757-0.722,3.514-1.07,5.272c-0.062,0.311-0.119,0.639-0.086,0.949c0.195,1.898,0.417,3.795,0.67,6.05
    c0.68-0.595,1.382-0.985,1.77-1.581c4.001-6.148,5.068-12.739,2.81-19.783c-0.826-2.575-1.741-2.889-3.554-0.919
    c-1.723,1.872-3.23,3.962-4.683,6.061c-6.499,9.385-11.771,19.447-16.214,29.944c-1.971,4.656-4.077,9.295-5.533,14.12
    c-1.69,5.603-2.631,11.413-3.151,17.273c-0.763,8.592-1.563,17.182-2.436,25.763c-0.303,2.975-0.842,5.926-1.328,8.878
    c-0.538,3.265-0.769,3.051-3.879,3.713c-1.035,0.221-2.15,0.063-3.229,0.076c-0.12,0.001-0.261,0.016-0.355-0.039
    c-0.541-0.315-1.334-0.526-1.558-1.001c-0.737-1.568-2.811-2.18-2.572-4.523c0.987-9.695,1.841-19.406,2.573-29.125
    c0.633-8.409,1.025-16.837,1.543-25.255c0.606-9.854,1.191-19.711,1.866-29.561c0.513-7.494,1.075-14.986,1.768-22.466
    c0.342-3.686,0.929-7.357,1.598-11.001c0.4-2.183,0.685-2.268,2.845-2.114c1.349,0.097,2.716,0.19,4.029,0.487
    c2.548,0.576,3.827,2.204,3.71,4.823c-0.174,3.91-0.502,7.813-0.741,11.722c-0.238,3.909-0.409,7.823-0.68,11.73
    c-0.326,4.702-0.748,9.398-1.088,14.101c-0.175,2.428-0.274,4.861-0.379,7.294c-0.016,0.38,0.125,0.767,0.193,1.15
    C146.058,518.464,146.17,518.488,146.282,518.513z"/>
  <path fill-rule="evenodd" clip-rule="evenodd" fill="#22374A" d="M331.739,305.171c0.883,3.828,0.268,7.128-1.58,10.187
    c-1.584,2.624-3.069,5.33-4.896,7.777c-2.84,3.805-9.461,5.762-13.739,4.337c-4.544-1.513-7.867-6.488-8.372-11.569
    c-0.779-7.848,0.988-15.316,2.805-22.801c1.786-7.355,3.758-14.667,5.451-22.044c1.532-6.682,2.798-13.425,4.173-20.143
    c0.079-0.388,0.129-0.799,0.093-1.19c-0.066-0.714-0.329-1.027-1.09-0.534c-4.305,2.786-7.673,6.444-9.709,11.133
    c-5.032,11.59-9.908,23.248-14.867,34.869c-1.156,2.71-2.349,5.407-3.614,8.067c-0.979,2.057-1.961,2.343-4.052,1.4
    c-3.489-1.574-4.174-3.019-3.721-6.831c0.683-5.75,1.216-11.518,1.787-17.28c0.165-1.661,0.238-3.332,0.354-4.998
    c-0.122-0.078-0.243-0.155-0.364-0.233c-0.646,0.576-1.483,1.037-1.909,1.745c-4.638,7.722-8.327,15.879-11.006,24.487
    c-0.402,1.292-0.817,2.585-1.319,3.84c-0.65,1.623-1.96,2.168-3.683,1.875c-4.189-0.712-5.723-3.547-5.069-8.203
    c0.866-6.167,1.529-12.361,2.373-18.531c0.729-5.335,1.55-10.66,2.41-15.977c0.347-2.146,2.319-3.736,4.371-3.761
    c1.768-0.021,4.028,1.817,4.31,3.736c0.158,1.079-0.017,2.222-0.148,3.324c-0.41,3.447-0.882,6.888-1.296,10.335
    c-0.053,0.44,0.1,0.905,0.421,1.43c0.251-0.376,0.51-0.748,0.752-1.13c2.022-3.186,4.241-6.202,7.327-8.462
    c2.18-1.596,4.612-2.298,7.322-2.074c2.033,0.168,3.393,1.205,3.497,3.246c0.11,2.131-0.156,4.283-0.272,6.425
    c-0.06,1.106-0.152,2.21-0.229,3.315c0.108,0.051,0.217,0.103,0.326,0.154c0.314-0.496,0.679-0.966,0.935-1.49
    c3.7-7.558,7.273-15.181,11.111-22.668c3.087-6.022,7.958-10.569,13.22-14.683c1.233-0.964,2.591-1.917,4.048-2.411
    c1.748-0.593,3.607-0.063,5.163,0.88c0.686,0.416,1.214,1.342,1.477,2.146c0.467,1.431,0.941,2.947,0.938,4.426
    c-0.006,2.776-0.208,5.57-0.577,8.324c-1.522,11.365-4.967,22.326-7.139,33.555c-0.885,4.575-1.513,9.2-2.337,13.788
    c-0.273,1.52-0.837,2.985-1.201,4.491c-0.963,3.982-0.761,8.011-0.394,12.041c0.024,0.274,0.12,0.544,0.198,0.812
    c0.424,1.451,0.773,1.481,2.119,0.796c4.779-2.432,7.863-6.552,10.928-10.714c0.994-1.351,2.018-2.685,3.097-3.967
    C330.57,305.929,331.178,305.604,331.739,305.171z"/>
  <path fill-rule="evenodd" clip-rule="evenodd" fill="#DEADB3" d="M152.135,402.744c-0.662,3.193-1.552,6.359-1.939,9.586
    c-0.82,6.821-2.782,13.326-4.965,19.789c-0.37,1.094-0.833,2.16-1.144,3.271c-0.45,1.61-1.413,2.793-2.652,3.882
    c-1.17,1.027-2.379,1.494-3.926,1.255c-1.921-0.298-3.731-0.834-5.308-2.013c-1.324-0.989-2.156-2.236-2.553-3.899
    c-1.555-6.514-1.508-13.09-0.727-19.659c0.815-6.851,1.928-13.665,2.844-20.504c0.258-1.928,0.317-3.886,0.406-5.833
    c0.066-1.449,1.91-3.445,3.778-3.947c2.03-0.544,3.979-0.106,5.831,0.688c1.395,0.599,1.964,2.06,1.65,3.6
    c-1.427,6.989-2.935,13.963-4.237,20.975c-0.779,4.192-1.232,8.444-1.831,12.665c1.596,0.365,2.073,0.254,2.489-1.214
    c0.552-1.945,0.742-3.989,1.232-5.956c1.956-7.845,3.913-15.689,5.979-23.505c1.129-4.272,2.503-8.478,3.704-12.731
    c0.296-1.051,0.86-1.542,1.916-1.614c1.787-0.122,3.576-0.44,5.356-0.394c2.935,0.078,4.245,1.848,4.26,4.756
    c0.029,5.39,0.215,10.78,0.444,16.166c0.162,3.791,0.572,7.571,0.75,11.362c0.354,7.551,1.047,15.046,3.09,22.361
    c0.16,0.573,0.156,1.192,0.321,1.764c0.075,0.259,0.341,0.547,0.589,0.64c0.138,0.051,0.485-0.227,0.618-0.434
    c0.343-0.535,0.707-1.084,0.909-1.679c1.905-5.618,4.068-11.171,5.572-16.896c1.271-4.84,1.757-9.885,2.61-14.835
    c0.663-3.851,1.526-7.676,1.993-11.549c0.586-4.872,1.175-9.795,0.137-14.676c-0.312-1.467-1.128-2.834-1.78-4.216
    c-0.297-0.629-0.321-1.064,0.399-1.313c3.525-1.223,6.24,0.689,7.097,3.004c1.464,3.955,1.952,7.974,1.585,12.11
    c-0.257,2.894-0.791,5.763-1.091,8.654c-0.126,1.214,0.129,2.464,0.042,3.686c-0.221,3.096-0.444,6.196-0.834,9.273
    c-1.267,9.992-4.433,19.478-7.868,28.883c-0.998,2.731-2.497,5.135-4.598,7.204c-1.452,1.43-3.08,1.89-5.006,1.688
    c-2.617-0.274-4.889-1.291-6.919-2.986c-1.479-1.234-2.114-2.981-2.532-4.626c-1.097-4.318-2.031-8.701-2.649-13.111
    c-0.853-6.084-1.348-12.218-2.026-18.326c-0.052-0.467-0.338-0.908-0.515-1.36C152.467,402.734,152.301,402.739,152.135,402.744z"/>
  <path fill-rule="evenodd" clip-rule="evenodd" fill="#22374A" d="M206.007,218.054c-1.004,0.347-2.035,0.63-3.007,1.05
    c-4.207,1.818-8.387,3.698-12.598,5.506c-1.47,0.631-3.913-0.055-4.892-1.279c-0.535-0.669-0.651-1.259,0.169-1.92
    c4.782-3.85,9.871-7.175,15.576-9.52c1.656-0.681,3.333-1.398,4.823-2.373c1.685-1.102,3.252-2.423,4.717-3.812
    c1.442-1.368,2.827-2.14,4.791-1.05c0.433,0.24,1.178,0.127,1.708-0.046c4.876-1.591,9.895-2.637,14.971-3.025
    c3.139-0.239,6.191,0.975,8.92,2.691c0.505,0.318,1.026,0.633,1.469,1.029c1.182,1.055,1.094,2.682-0.314,3.374
    c-0.829,0.407-1.987,0.727-2.806,0.472c-4.511-1.405-8.76-0.209-12.992,1.098c-1.628,0.503-3.129,1.4-4.733,2
    c-1.113,0.417-1.838,1.105-2.122,2.228c-0.82,3.241-1.729,6.465-2.389,9.74c-1.5,7.447-2.173,14.996-2.72,22.569
    c-0.518,7.168-1.357,14.313-2.041,21.468c-0.596,6.242-1.185,12.484-1.752,18.729c-0.628,6.922-1.238,13.845-1.836,20.77
    c-0.203,2.349-0.296,4.708-0.537,7.052c-0.137,1.334-0.437,2.655-0.724,3.969c-0.266,1.221,0.109,1.835,1.353,1.707
    c1.136-0.118,2.303-0.359,3.354-0.794c3.716-1.542,7.397-3.168,11.07-4.811c1.396-0.625,4.421,0.512,4.853,1.98
    c0.307,1.046-0.319,1.759-1.021,2.498c-3.68,3.874-8.493,5.486-13.421,6.943c-1.632,0.482-3.227,1.156-4.754,1.912
    c-1.412,0.697-2.156,1.907-2.184,3.577c-0.048,2.969-1.472,5.14-3.706,5.869c-2.383,0.777-5.323-0.18-7.013-2.451
    c-0.629-0.845-1.224-1.136-2.184-0.776c-1.229,0.461-2.49,0.843-3.693,1.363c-1.882,0.814-3.761,0.923-5.717,0.313
    c-0.61-0.191-1.286-0.164-1.916-0.303c-0.217-0.048-0.538-0.291-0.549-0.462c-0.02-0.311,0.053-0.764,0.266-0.933
    c2.868-2.274,5.612-4.755,8.696-6.691c3.707-2.326,5.451-5.464,5.756-9.73c0.659-9.244,1.394-18.484,2.216-27.715
    c0.883-9.904,1.744-19.815,2.901-29.689c1.431-12.206,3.148-24.377,4.774-36.56c0.131-0.978,0.531-1.917,0.755-2.886
    c0.107-0.461,0.139-0.951,0.128-1.426C207.621,218.381,207.387,218.181,206.007,218.054z"/>
  <path fill-rule="evenodd" clip-rule="evenodd" fill="#22374A" d="M419.122,257.613c-0.02,3.39-0.377,6.463-1.73,9.345
    c-5.338,11.367-10.624,22.759-16.054,34.082c-2.158,4.501-4.649,8.847-8.166,12.482c-2.13,2.203-4.473,4.131-7.521,4.922
    c-4.903,1.272-13.237-2.497-13.346-10.025c-0.075-5.27,0.738-10.431,1.814-15.551c1.378-6.551,2.933-13.064,4.346-19.608
    c0.296-1.367,0.311-2.795,0.454-4.195c-0.127-0.042-0.255-0.084-0.382-0.126c-0.55,0.755-1.157,1.476-1.639,2.272
    c-3.202,5.294-6.287,10.662-9.6,15.885c-1.531,2.415-3.432,4.607-5.273,6.81c-1.262,1.509-3.079,1.417-4.791,1.082
    c-3.635-0.71-6.361-4.007-6.541-7.737c-0.234-4.84,1.096-9.401,2.527-13.935c0.744-2.354,1.567-4.685,2.399-7.01
    c0.883-2.469,2.523-4.304,4.784-5.627c2.911-1.705,6.092-2.315,9.403-2.387c1.962-0.043,3.526,0.853,4.849,2.245
    c0.888,0.933,1.255,0.953,2.145-0.003c1.553-1.667,3.09-3.351,4.582-5.072c2.107-2.431,6.029-3.51,9.078-2.437
    c1.721,0.606,2.87,1.977,2.691,3.943c-0.236,2.604-0.709,5.204-1.309,7.752c-2.823,11.983-5.74,23.945-8.583,35.923
    c-0.447,1.884-0.688,3.816-1.016,5.677c2.735,1.032,3.818,0.743,5.448-1.65c1.978-2.902,3.869-5.865,5.722-8.85
    c6.104-9.835,12.089-19.745,18.307-29.507c1.786-2.805,4.198-5.211,6.338-7.788C418.305,258.231,418.646,258.017,419.122,257.613z
     M360.512,285.138c0.473-0.593,0.854-0.998,1.152-1.457c3.405-5.25,6.803-10.507,10.19-15.77c0.387-0.601,0.722-1.237,1.051-1.874
    c0.388-0.75,0.182-1.317-0.613-1.622c-0.854-0.327-1.713-0.647-2.583-0.929c-1.354-0.438-1.857-0.232-2.474,1.085
    c-1.148,2.451-2.313,4.896-3.366,7.39c-1.205,2.855-2.406,5.722-3.386,8.659C360.04,281.951,359.641,283.46,360.512,285.138z"/>
  <path fill-rule="evenodd" clip-rule="evenodd" fill="#22374A" d="M344.962,487.731c0.397-0.675,0.878-1.315,1.177-2.032
    c1.873-4.487,3.603-9.037,5.575-13.48c2.61-5.881,6.64-10.415,12.922-12.555c3.741-1.274,7.478-1.068,11.134,0.333
    c1.324,0.508,2.58,1.311,2.604,2.944c0.01,0.624-0.333,1.562-0.8,1.803c-0.539,0.278-1.541,0.179-2.087-0.163
    c-2.414-1.511-4.965-1.914-7.691-1.263c-1.703,0.406-2.974,1.367-3.867,2.951c-0.918,1.63-2.088,3.116-3.106,4.692
    c-4.181,6.462-6.551,13.583-7.972,21.116c-2.365,12.534-4.92,25.032-7.42,37.54c-0.512,2.56-2.198,3.694-4.793,3.356
    c-0.514-0.066-1.025-0.157-1.534-0.257c-3.59-0.707-5.074-2.437-5.111-6.105c-0.068-6.839-0.119-13.679-0.124-20.518
    c-0.01-11.678,0.016-23.355,0.04-35.032c0.006-2.875,1.022-4.051,3.875-4.49c0.824-0.127,1.688-0.204,2.506-0.094
    c0.584,0.079,1.397,0.366,1.625,0.81c0.733,1.428,1.66,2.943,1.761,4.475c0.3,4.538,0.22,9.101,0.34,13.652
    c0.021,0.749,0.307,1.491,0.47,2.236C344.644,487.678,344.803,487.705,344.962,487.731z"/>
  <path fill-rule="evenodd" clip-rule="evenodd" fill="#22374A" d="M244.502,237.802c0.399-2.842,0.812-5.683,1.191-8.528
    c0.142-1.066,0.299-2.144,0.29-3.215c-0.029-3.312,3.294-5.107,6.112-4.617c0.378,0.065,0.921,0.733,0.931,1.133
    c0.149,6.253-1.538,11.966-5.211,17.062c-0.116,0.161-0.241,0.354-0.408,0.433c-0.649,0.301-1.375,0.849-1.958,0.733
    c-0.373-0.074-0.596-1.138-0.788-1.788c-0.109-0.368-0.02-0.794-0.02-1.193C244.596,237.814,244.549,237.808,244.502,237.802z"/>
  <path fill-rule="evenodd" clip-rule="evenodd" fill="#22374A" d="M381.714,340.22c1.893-0.33,3.327,0.209,4.655,1.239
    c2.163,1.676,1.949,4.23-0.483,5.364c-3.415,1.591-7.206-0.596-7.552-4.357c-0.12-1.303,0.506-2.064,1.909-2.234
    C380.793,340.164,381.358,340.22,381.714,340.22z"/>
  </svg>